# xmcd CD database file
#
# Track frame offsets:
#	150
#	12996
#	27384
#	39693
#	51969
#	65691
#	78468
#	92573
#	105785
#	118826
#
# Disc length: 1759 seconds
#
# Revision: 0
# Processed by: cddbd v1.4PL0 Copyright (c) Steve Scherf et al.
# Submitted via: CDex 1.50
#
DISCID=7d06dd0a
DTITLE=Stew Stewart - Bet Your Heart
DYEAR=1997
DGENRE=Country
TTITLE0=Never...Very Seldom
TTITLE1=It's Up To You
TTITLE2=Over
TTITLE3=Travelin' Man
TTITLE4=A Short Pause For a Good Cause
TTITLE5=Bet Your heart
TTITLE6=Missing In Action
TTITLE7=Don't Make Me Laugh
TTITLE8=Young World
TTITLE9=I Like Meat
EXTD=YEAR: 1997
EXTT0=
EXTT1=
EXTT2=
EXTT3=
EXTT4=
EXTT5=
EXTT6=
EXTT7=
EXTT8=
EXTT9=
PLAYORDER=
